<svg width="14" height="10" viewBox="0 0 14 10" fill="none" xmlns="http://www.w3.org/2000/svg">
<path fill-rule="evenodd" clip-rule="evenodd" d="M8.65464 0.343891C8.68845 0.25921 8.74203 0.184467 8.81062 0.126319C8.87921 0.0681702 8.96068 0.0284199 9.04776 0.0106071C9.13485 -0.00720572 9.22485 -0.00252819 9.30976 0.0242232C9.39467 0.0509745 9.47185 0.0989695 9.53442 0.163935L13.8418 4.60729C13.892 4.65888 13.9317 4.72017 13.9589 4.78765C13.986 4.85513 14 4.92747 14 5.00053C14 5.07358 13.986 5.14592 13.9589 5.2134C13.9317 5.28088 13.892 5.34217 13.8418 5.39376L9.53442 9.83712C9.43332 9.94141 9.2962 10 9.15322 10C9.01024 10 8.87311 9.94141 8.77201 9.83712C8.67091 9.73282 8.61411 9.59137 8.61411 9.44388C8.61411 9.29639 8.67091 9.15494 8.77201 9.05064L12.1609 5.55594H0.538425C0.395625 5.55594 0.258675 5.49743 0.157701 5.39327C0.0567267 5.2891 0 5.14783 0 5.00053C0 4.85322 0.0567267 4.71195 0.157701 4.60778C0.258675 4.50362 0.395625 4.44511 0.538425 4.44511H12.1609L8.77201 0.950408C8.69636 0.872705 8.64481 0.773557 8.62391 0.665562C8.60301 0.557568 8.61371 0.445602 8.65464 0.343891Z" fill="#123026"/>
</svg>
