<svg width="6" height="10" viewBox="0 0 6 10" fill="none" xmlns="http://www.w3.org/2000/svg">
<path fill-rule="evenodd" clip-rule="evenodd" d="M5.35402 9.49379C5.40058 9.44735 5.43753 9.39217 5.46273 9.33142C5.48794 9.27068 5.50092 9.20556 5.50092 9.13979C5.50092 9.07402 5.48794 9.0089 5.46273 8.94816C5.43753 8.88741 5.40058 8.83224 5.35402 8.78579L1.70702 5.13979L5.35402 1.49379C5.44791 1.39991 5.50065 1.27257 5.50065 1.13979C5.50065 1.00702 5.44791 0.879678 5.35402 0.785792C5.26014 0.691905 5.1328 0.63916 5.00002 0.63916C4.86725 0.63916 4.73991 0.691905 4.64602 0.785792L0.646022 4.78579C0.599459 4.83224 0.562516 4.88741 0.537309 4.94816C0.512103 5.0089 0.499128 5.07402 0.499128 5.13979C0.499128 5.20556 0.512103 5.27068 0.537309 5.33143C0.562516 5.39217 0.599459 5.44735 0.646022 5.49379L4.64602 9.49379C4.69247 9.54035 4.74764 9.5773 4.80839 9.6025C4.86913 9.62771 4.93425 9.64069 5.00002 9.64069C5.06579 9.64069 5.13091 9.62771 5.19166 9.6025C5.2524 9.5773 5.30758 9.54035 5.35402 9.49379Z" fill="#123026" fill-opacity="0.75"/>
</svg>
