<svg width="6" height="10" viewBox="0 0 6 10" fill="none" xmlns="http://www.w3.org/2000/svg">
<path fill-rule="evenodd" clip-rule="evenodd" d="M0.645978 0.785994C0.599415 0.832439 0.562472 0.887615 0.537266 0.94836C0.512059 1.00911 0.499084 1.07423 0.499084 1.13999C0.499084 1.20576 0.512059 1.27088 0.537266 1.33163C0.562472 1.39237 0.599415 1.44755 0.645978 1.49399L4.29298 5.13999L0.645978 8.78599C0.552092 8.87988 0.499347 9.00722 0.499347 9.13999C0.499347 9.27277 0.552092 9.40011 0.645978 9.49399C0.739865 9.58788 0.867202 9.64062 0.999978 9.64062C1.13275 9.64062 1.26009 9.58788 1.35398 9.49399L5.35398 5.49399C5.40054 5.44755 5.43748 5.39237 5.46269 5.33163C5.4879 5.27088 5.50087 5.20576 5.50087 5.13999C5.50087 5.07423 5.4879 5.0091 5.46269 4.94836C5.43748 4.88761 5.40054 4.83244 5.35398 4.78599L1.35398 0.785994C1.30753 0.73943 1.25236 0.702488 1.19161 0.677281C1.13087 0.652075 1.06575 0.6391 0.999978 0.6391C0.934211 0.6391 0.86909 0.652075 0.808345 0.677281C0.747599 0.702488 0.692424 0.73943 0.645978 0.785994Z" fill="#123026" fill-opacity="0.75"/>
</svg>
