<svg width="20" height="20" viewBox="0 0 20 20" fill="none" xmlns="http://www.w3.org/2000/svg">
<path fill-rule="evenodd" clip-rule="evenodd" d="M12.1368 12.2947C11.5715 12.8601 10.9003 13.3086 10.1616 13.6146C9.42287 13.9205 8.63114 14.078 7.83157 14.078C7.03201 14.078 6.24028 13.9205 5.50158 13.6146C4.76289 13.3086 4.09169 12.8601 3.52631 12.2947C2.96094 11.7294 2.51246 11.0582 2.20648 10.3195C1.9005 9.58076 1.74301 8.78903 1.74301 7.98947C1.74301 7.18991 1.9005 6.39818 2.20648 5.65948C2.51246 4.92078 2.96094 4.24958 3.52631 3.68421C4.66814 2.54238 6.21679 1.90091 7.83157 1.90091C9.44636 1.90091 10.995 2.54238 12.1368 3.68421C13.2787 4.82603 13.9201 6.37468 13.9201 7.98947C13.9201 9.60426 13.2787 11.1529 12.1368 12.2947ZM12.4105 13.4737C10.9945 14.6596 9.17387 15.2503 7.33133 15.1218C5.48879 14.9932 3.76785 14.1553 2.53029 12.7841C1.29272 11.413 0.634916 9.61555 0.695144 7.76951C0.755373 5.92347 1.52895 4.17267 2.85325 2.88515C4.17756 1.59763 5.94945 0.873672 7.79645 0.865458C9.64346 0.857244 11.4217 1.56541 12.7574 2.8411C14.0931 4.11679 14.8822 5.86064 14.9589 7.70607C15.0355 9.5515 14.3937 11.3548 13.1684 12.7368L18.8526 18.421C18.9074 18.4686 18.9517 18.527 18.9828 18.5925C19.0139 18.658 19.0311 18.7293 19.0334 18.8018C19.0357 18.8742 19.0229 18.9464 18.996 19.0138C18.969 19.0811 18.9285 19.1421 18.8768 19.193C18.8252 19.244 18.7636 19.2837 18.6959 19.3096C18.6282 19.3356 18.5558 19.3473 18.4834 19.344C18.4109 19.3407 18.3399 19.3225 18.2749 19.2905C18.2098 19.2584 18.1521 19.2133 18.1053 19.1579L12.4105 13.4737Z" fill="#123026"/>
</svg>
