<svg width="22" height="25" viewBox="0 0 22 25" fill="none" xmlns="http://www.w3.org/2000/svg">
<path d="M1 3.55556H8.5M8.5 3.55556C8.5 4.96695 9.61925 6.11111 11 6.11111C12.3807 6.11111 13.5 4.96695 13.5 3.55556M8.5 3.55556C8.5 2.14416 9.61925 1 11 1C12.3807 1 13.5 2.14416 13.5 3.55556M13.5 3.55556H21M1 12.5H16M16 12.5C16 13.9114 17.1193 15.0556 18.5 15.0556C19.8807 15.0556 21 13.9114 21 12.5C21 11.0886 19.8807 9.94444 18.5 9.94444C17.1193 9.94444 16 11.0886 16 12.5ZM6 21.4444H21M6 21.4444C6 20.033 4.88071 18.8889 3.5 18.8889C2.11929 18.8889 1 20.033 1 21.4444C1 22.8559 2.11929 24 3.5 24C4.88071 24 6 22.8559 6 21.4444Z" stroke="#123026" stroke-width="2" stroke-linecap="round"/>
</svg>
