<svg width="20" height="20" viewBox="0 0 20 20" fill="none" xmlns="http://www.w3.org/2000/svg">
<path fill-rule="evenodd" clip-rule="evenodd" d="M9.99222 1.63262C8.93189 0.616764 7.53698 0 6.00884 0C2.69024 0 0 2.90873 0 6.49682C0 8.14909 0.562656 9.6657 1.50221 10.8121L10 20L18.2462 11.0841L18.49 10.8038C19.4296 9.65721 20 8.14909 20 6.49682C20 2.90873 17.3098 0 13.9911 0C12.463 0 11.0681 0.616764 10.0078 1.63263L10 1.62422L9.99222 1.63262ZM10 4.05985L10.061 4.11824L11.0088 3.09343L11.1076 2.99878C11.8742 2.26432 12.8813 1.81818 13.9911 1.81818C16.4033 1.81818 18.3333 3.92816 18.3333 6.49682C18.3333 7.6743 17.9317 8.74836 17.2626 9.57345L17.0547 9.81248L10 17.4401L2.71416 9.56255C2.05992 8.74642 1.66667 7.67382 1.66667 6.49682C1.66667 3.92816 3.59666 1.81818 6.00884 1.81818C7.11861 1.81818 8.12578 2.26432 8.89244 2.99876L8.99122 3.09337L9.93911 4.11821L10 4.05985Z" fill="#123026"/>
</svg>
