<svg width="18" height="20" viewBox="0 0 18 20" fill="none" xmlns="http://www.w3.org/2000/svg">
<path fill-rule="evenodd" clip-rule="evenodd" d="M5.84209 4.73685C5.84209 3.89932 6.17479 3.0961 6.76701 2.50388C7.35923 1.91166 8.16246 1.57895 8.99998 1.57895C9.83751 1.57895 10.6407 1.91166 11.233 2.50388C11.8252 3.0961 12.1579 3.89932 12.1579 4.73685C12.1579 5.57437 11.8252 6.3776 11.233 6.96982C10.6407 7.56204 9.83751 7.89474 8.99998 7.89474C8.16246 7.89474 7.35923 7.56204 6.76701 6.96982C6.17479 6.3776 5.84209 5.57437 5.84209 4.73685ZM8.99998 0.526321C7.88328 0.526321 6.81232 0.969929 6.02269 1.75956C5.23306 2.54918 4.78945 3.62015 4.78945 4.73685C4.78945 5.85355 5.23306 6.92451 6.02269 7.71414C6.81232 8.50377 7.88328 8.94737 8.99998 8.94737C10.1167 8.94737 11.1876 8.50377 11.9773 7.71414C12.7669 6.92451 13.2105 5.85355 13.2105 4.73685C13.2105 3.62015 12.7669 2.54918 11.9773 1.75956C11.1876 0.969929 10.1167 0.526321 8.99998 0.526321ZM14.8737 13.3158C16.0526 14.179 16.8 15.6737 16.8842 18.4211H1.11577C1.19998 15.6842 1.94735 14.179 3.11577 13.3158C4.43156 12.3684 6.3684 12.1053 8.99998 12.1053C11.6316 12.1053 13.5789 12.379 14.8737 13.3158ZM8.99998 11.0526C6.3684 11.0526 4.10524 11.3053 2.50524 12.4737C0.863139 13.6632 0.0526123 15.7158 0.0526123 18.9474V19.4737H17.9473V18.9474C17.9473 15.7158 17.1368 13.6632 15.4947 12.4737C13.8947 11.3158 11.6316 11.0526 8.99998 11.0526Z" fill="#123026"/>
</svg>
